<?xml version="1.0" encoding="utf-8"?>
<!-- Generator: Adobe Illustrator 18.1.1, SVG Export Plug-In . SVG Version: 6.00 Build 0)  -->
<!DOCTYPE svg PUBLIC "-//W3C//DTD SVG 1.1//EN" "http://www.w3.org/Graphics/SVG/1.1/DTD/svg11.dtd">
<svg version="1.1" id="Layer_1" xmlns="http://www.w3.org/2000/svg" xmlns:xlink="http://www.w3.org/1999/xlink" x="0px" y="0px"
	 viewBox="212 -104 1036 1000" enable-background="new 212 -104 1036 1000" xml:space="preserve">
<path fill="#FFFFFF" d="M212,16c0-33.3,11.7-60.8,35-82.5S300.7-99,338-99c36.7,0,66.3,10.7,89,32c23.3,22,35,50.7,35,86
	c0,32-11.3,58.7-34,80c-23.3,22-54,33-92,33h-1c-36.7,0-66.3-11-89-33S212,49.3,212,16z M225,891V223h222v668H225z M570,891h222V518
	c0-23.3,2.7-41.3,8-54c9.3-22.7,23.5-41.8,42.5-57.5c19-15.7,42.8-23.5,71.5-23.5c74.7,0,112,50.3,112,151v357h222V508
	c0-98.7-23.3-173.5-70-224.5S1069.7,207,993,207c-86,0-153,37-201,111v2h-1l1-2v-95H570c1.3,21.3,2,87.7,2,199S571.3,689.7,570,891z
	"/>
</svg>
